<?xml version="1.0" encoding="UTF-8"?>
<svg width="153px" height="55px" viewBox="0 0 153 55" version="1.1" xmlns="http://www.w3.org/2000/svg" xmlns:xlink="http://www.w3.org/1999/xlink">
    <!-- Generator: Sketch 48.2 (47327) - http://www.bohemiancoding.com/sketch -->
    <title>logo</title>
    <desc>Created with Sketch.</desc>
    <defs>
        <polygon id="path-1" points="0 55 153 55 153 0 0 0"></polygon>
    </defs>
    <g id="登录首页-方案二" stroke="none" stroke-width="1" fill="none" fill-rule="evenodd" transform="translate(-643.000000, -160.000000)">
        <g id="logo" transform="translate(643.000000, 160.000000)">
            <path d="M92.9431025,1.9730053 C93.2279478,1.9730053 93.4004294,1.85477533 93.4004294,1.62719973 C93.4004294,1.42764394 93.2859188,1.2909619 92.9617105,1.2909619 L92.6668456,1.2909619 L92.6668456,1.9730053 L92.9431025,1.9730053 Z M92.2295581,0.94515633 L93.0382895,0.94515633 C93.475577,0.94515633 93.8670603,1.11805911 93.8670603,1.60054673 C93.8670603,1.84520759 93.7045983,2.08235093 93.466273,2.16436016 L93.9622473,3.0097386 L93.475577,3.0097386 L93.0955448,2.29147446 L92.6668456,2.29147446 L92.6668456,3.0097386 L92.2295581,3.0097386 L92.2295581,0.94515633 Z M94.5806048,1.99965829 C94.5806048,1.04493422 93.8949723,0.363574235 92.9996422,0.363574235 C92.1057434,0.363574235 91.4201109,1.04493422 91.4201109,1.99965829 C91.4201109,2.96395011 92.1057434,3.63710917 92.9996422,3.63710917 C93.8949723,3.63710917 94.5806048,2.96395011 94.5806048,1.99965829 Z M91,1.99965829 C91,0.81804203 91.9053498,0 92.9996422,0 C94.0946502,0 95,0.81804203 95,1.99965829 C95,3.19152571 94.0946502,4 92.9996422,4 C91.9053498,4 91,3.19152571 91,1.99965829 Z" id="Fill-1" fill="#767575"></path>
            <mask id="mask-2" fill="white">
                <use xlink:href="#path-1"></use>
            </mask>
            <g id="Clip-4"></g>
            <polygon id="Fill-3" fill="#757575" mask="url(#mask-2)" points="97 55 101 55 101 34 97 34"></polygon>
            <path d="M19.3735623,34 L4.92831259,34 C3.61241531,34 2.37403498,34.5259056 1.44446195,35.4813332 C0.512998267,36.4367607 0,37.7065673 0,39.0578795 L0,55 L4.04411533,55 L4.04411533,40.1737309 C4.04411533,39.6128943 4.25649913,39.0856949 4.64219316,38.6885165 C5.02914763,38.2926318 5.54340633,38.0739897 6.08917599,38.0739897 L18.0986293,38.0739897 C18.6236017,38.0739897 19.1170632,38.2835757 19.4882622,38.6645823 C19.8594612,39.0462358 20.0642823,39.5527353 20.0642823,40.0909315 L20.0642823,55 L24,55 L24,38.7480286 C24,37.4801626 23.5191429,36.2873337 22.6443989,35.3901244 C21.7709154,34.4935621 20.6087916,34 19.3735623,34" id="Fill-5" fill="#757575" mask="url(#mask-2)"></path>
            <polygon id="Fill-6" fill="#757575" mask="url(#mask-2)" points="30 55 34 55 34 34 30 34"></polygon>
            <polygon id="Fill-7" fill="#757575" mask="url(#mask-2)" points="10 54 14 54 14 42 10 42"></polygon>
            <path d="M60.064179,48.9084216 C60.064179,49.4466178 59.8599827,49.9531173 59.4887739,50.334124 C59.1175652,50.7157775 58.6234605,50.9260103 58.0984743,50.9260103 L46.0887057,50.9260103 C45.5422914,50.9260103 45.0292797,50.7073682 44.6423151,50.3108366 C44.2553504,49.9143051 44.0429611,49.3871057 44.0429611,48.8256222 L44.0429611,34 L40,34 L40,50.3574113 C40,51.5974618 40.470786,52.7631222 41.3247551,53.6396316 C42.1787243,54.516141 43.3144088,55 44.5225703,55 L59.3734408,55 C60.6093327,55 61.7708569,54.505791 62.6449936,53.6092287 C63.5185,52.7120195 64,51.5198374 64,50.2513245 L64,34 L60.064179,34 L60.064179,48.9084216 Z" id="Fill-8" fill="#757575" mask="url(#mask-2)"></path>
            <polygon id="Fill-9" fill="#757575" mask="url(#mask-2)" points="50 46 54 46 54 34 50 34"></polygon>
            <path d="M71.3879362,35.3618669 C70.4932119,36.2404285 70,37.4075593 70,38.6492425 L70,50.4362357 C70,51.6554246 70.4840419,52.8007039 71.3623913,53.6631982 C72.2400857,54.5250497 73.4085983,55 74.6511254,55 L92,55 L92,50.8764805 L76.2047755,50.8764805 C75.7469334,50.8764805 75.3172562,50.7010252 74.9943432,50.3841775 C74.6707753,50.0673298 74.4926164,49.645723 74.4926164,49.1958378 L74.4926164,39.7206121 C74.4926164,39.2649426 74.6733953,38.8362663 75.0022032,38.5136343 C75.3310111,38.1910023 75.7678933,38.0129763 76.2329403,38.0129763 L92,38.0129763 L92,34 L74.7388948,34 C73.4727879,34 72.2826605,34.483948 71.3879362,35.3618669" id="Fill-10" fill="#757575" mask="url(#mask-2)"></path>
            <polygon id="Fill-11" fill="#757575" mask="url(#mask-2)" points="79 46 92 46 92 42 79 42"></polygon>
            <path d="M131.874828,39 C131.427098,40.8680448 130.469051,42.3741091 129,43.5181928 L129,45.6863252 C129.637552,45.5056475 130.150619,45.3249698 130.5337,45.1442921 L130.5337,54 L133.887208,54 L133.887208,42.072146 C134.184319,41.5126078 134.900275,39.4495061 135,39 L131.874828,39 Z" id="Fill-12" fill="#757575" mask="url(#mask-2)"></path>
            <path d="M142.72159,34.9498135 L142.72159,37.9737948 C142.72159,38.5494213 142.478819,38.8674205 141.997786,38.9236083 L141.997786,34 L138.999537,34 L138.999537,38.9236083 L138.275733,38.9236083 L138.275733,34.9498135 L136,34.9498135 L136,40.9971785 L142.100818,40.9971785 C144.099651,41.0551595 145.064294,40.2195149 144.996678,38.4920379 L144.996678,34.9498135 L142.72159,34.9498135 Z" id="Fill-13" fill="#757575" mask="url(#mask-2)"></path>
            <path d="M130,41 L130,38.8248551 C131.312626,37.7533196 132.250505,36.14438 132.812963,34 L136,34 C135.187262,37.7219001 133.187037,40.0547971 130,41" id="Fill-14" fill="#757575" mask="url(#mask-2)"></path>
            <path d="M145.476858,49.6463064 C145.800485,49.2860872 145.793813,49.3017489 146,49.0361524 L146,51.6059776 C144.813588,52.5835291 144.30913,53.0860089 142.436093,54.5418951 L142.436093,47.2944401 L139.373309,47.2944401 L139.373309,49.5869225 C139.511435,51.8513443 138.070124,53.6543983 135,55 L135,52.5234926 C135.838095,51.9727225 136.220443,50.995171 136.151714,49.5869225 L136.151714,45 L145.476858,45 L145.476858,49.6463064 Z" id="Fill-15" fill="#757575" mask="url(#mask-2)"></path>
            <polygon id="Fill-16" fill="#757575" mask="url(#mask-2)" points="136 44 145 44 145 42 136 42"></polygon>
            <path d="M148.199865,40.3908611 C148.262011,42.5228473 148.482226,44.2565993 148.859157,45.5946659 C149.234738,43.9520299 149.454277,41.700892 149.517774,38.8387038 L148.482226,38.8387038 C148.230938,39.4484799 147.88508,39.9658656 147.447353,40.3908611 L148.199865,40.3908611 Z M153,36.2823594 L153,38.8387038 L152.246812,38.8387038 C152.308283,43.4652285 151.649666,46.99645 150.270286,49.4304569 C150.960652,50.4658656 151.713164,51.4388312 152.529173,52.3512652 L152.529173,55 C151.148442,53.8422538 149.925103,52.7469507 148.859157,51.7128163 C147.666216,52.9291826 146.473275,53.9958129 145.283036,54.9082469 L145.283036,52.1696705 C146.159841,51.1960677 146.849531,50.251775 147.352782,49.3387038 C146.348307,47.2086292 145.720088,44.7128163 145.470827,41.8519024 C145.407329,41.8519024 145.343832,41.883124 145.283036,41.9436556 C145.155366,41.9436556 145.061471,41.9742399 145,42.0341344 L145,39.751775 C145.878156,38.5965775 146.411804,36.6793191 146.599595,34 L149.611669,34 C149.548847,34.7913708 149.454277,35.5521573 149.329984,36.2823594 L153,36.2823594 Z" id="Fill-17" fill="#757575" mask="url(#mask-2)"></path>
            <path d="M128,54.4164709 C123.596535,52.4685984 119.376259,49.0058563 118.450241,44.8654263 L118.450241,55 L114.539057,55 L114.539057,44.9563825 C113.670325,49.157023 109.402206,52.5589141 105,54.3844441 L105,51.8280616 C107.259963,50.0633826 110.309339,47.3615983 110.889123,44.5003203 L105.040919,44.4990392 L105.040919,41.8517005 L114.539057,41.8529815 L114.539057,34 L118.450241,34 L118.450241,41.8529815 L128,41.8529815 L128,44.5003203 L122.186419,44.5003203 C122.765574,47.3615983 125.740667,50.0954095 128,51.8600885 L128,54.4164709 Z" id="Fill-18" fill="#757575" mask="url(#mask-2)"></path>
            <path d="M106,36 L109.70599,36 C109.879584,37.8513655 110.310513,39.5182511 111,41 L107.638142,41 C106.832518,39.3954832 106.287286,37.7292542 106,36" id="Fill-19" fill="#757575" mask="url(#mask-2)"></path>
            <path d="M127,36 C126.711491,37.7292542 126.166259,39.3954832 125.361858,41 L122,41 C122.689487,39.5182511 123.120416,37.8513655 123.293399,36 L127,36 Z" id="Fill-20" fill="#757575" mask="url(#mask-2)"></path>
            <path d="M69.9306446,7.52430778 L74.2856622,11.5532308 C74.5510742,11.7987693 74.5510742,12.1963077 74.2856622,12.4418462 C74.0209155,12.6867692 73.5905357,12.6867692 73.3257889,12.4418462 L68.9701061,8.41230777 C68.7053593,8.16676931 68.7053593,7.76984624 68.9701061,7.52430778 C69.2361832,7.28000009 69.6652326,7.28000009 69.9306446,7.52430778 M75.9985339,5.99200011 C75.9918819,3.78646167 74.0588315,1.99938477 71.6721195,2.00000016 C69.2860727,1.99938477 67.3523571,3.78646167 67.3450399,5.99200011 L67.3284101,5.99200011 C64.9370418,5.99200011 62.999335,7.78461547 63.0000002,9.99630775 C62.999335,12.2073846 64.9370418,14 67.3284101,14 L67.3437096,14 L74.7413194,13.9993846 C75.4364459,13.9993846 75.9998642,13.4781539 75.9998642,12.8344616 L75.9998642,6.0043078 C76.0005294,5.99938472 75.9985339,5.9963078 75.9985339,5.99200011" id="Fill-21" fill="#10938B" mask="url(#mask-2)"></path>
            <path d="M82.7955894,22.2950924 L78.4400839,18.2653475 C78.1753479,18.0204118 78.1760131,17.622853 78.4400839,17.3779174 C78.7061502,17.1323663 79.1358473,17.1323663 79.4005833,17.3779174 L83.7554236,21.4064314 C84.0214899,21.6525979 84.0208247,22.0489259 83.7554236,22.2950924 C83.4906876,22.540028 83.0603253,22.540028 82.7955894,22.2950924 M77.0013303,24.0071801 C77.007982,26.2134469 78.9422841,28 81.329564,28 C83.7141833,28 85.6484854,26.2134469 85.6558022,24.0071801 L85.6724313,24.0071801 C88.0623719,24.0071801 90.000665,22.2150883 89.9999998,20.0032826 C90.000665,17.791477 88.0623719,15.9987698 85.6704358,16.0000006 L85.6558022,16.0000006 L78.259824,16.0000006 C77.5640606,16.0000006 77,16.5206427 77,17.1649834 L77.0006652,23.9954872 C77,23.9991797 77.0013303,24.0034876 77.0013303,24.0071801" id="Fill-22" fill="#10938B" mask="url(#mask-2)"></path>
            <path d="M68.5243078,21.6027425 L72.5532308,17.5828899 C72.7993846,17.3379042 73.1956923,17.3379042 73.4418462,17.5828899 C73.6867692,17.8278756 73.6867692,18.224519 73.4418462,18.4688907 L69.4123078,22.4893573 C69.1667693,22.733115 68.7692309,22.733115 68.5243078,22.4893573 C68.2793847,22.2437577 68.2793847,21.8477282 68.5243078,21.6027425 M66.9920001,16.001228 C64.7864617,16.007982 62.9993848,17.7922636 63.0000002,19.9952927 C63.0000002,22.1977077 64.7864617,23.9826034 66.9920001,23.9893573 L66.9920001,24.0047073 C66.9920001,26.2120344 68.7846155,28 70.9963077,28 C73.2073846,28 75,26.2120344 75,24.0047073 L75,23.9905853 L75,17.1623005 C75,16.5206713 74.4781539,16 73.8344616,16 L67.0036924,16 C67.0000001,16 66.9963078,16.001228 66.9920001,16.001228" id="Fill-23" fill="#10938B" mask="url(#mask-2)"></path>
            <path d="M83.2950924,8.65022483 L79.2653475,12.6706913 C79.0204118,12.915063 78.622853,12.915063 78.3779174,12.6706913 C78.1323663,12.4257056 78.1323663,12.0290622 78.3785328,11.7840765 L82.4064314,7.76422405 C82.6525979,7.51985239 83.0495413,7.51985239 83.2950924,7.76422405 C83.5394126,8.00920972 83.5394126,8.40585317 83.2950924,8.65022483 Z M85.0071801,13.9993855 C87.2134469,13.9926315 89,12.2071219 89,10.004093 C89,7.802906 87.2134469,6.01739646 85.0071801,6.01064247 L85.0071801,5.99529249 C85.0065646,3.78919353 83.2150883,2 81.0026672,2 C78.791477,2 76.9987698,3.78857953 77.0000006,5.99652049 L77.0000006,6.01064247 L77.0000006,12.8376991 C77.0000006,13.4799422 77.5206427,14.0006135 78.164368,13.9999995 L84.9954872,13.9993855 L85.0071801,13.9993855 Z" id="Fill-24" fill="#10938B" mask="url(#mask-2)"></path>
        </g>
    </g>
</svg>